<svg width="211" height="75" viewBox="0 0 211 75" fill="none" xmlns="http://www.w3.org/2000/svg">
<path d="M81.1591 13.3906C82.3182 13.3906 83.37 13.6074 84.3574 14.0193C85.3233 14.4311 86.1819 15.0164 86.8903 15.7318C87.5986 16.4471 88.1567 17.2926 88.5645 18.2897C88.9723 19.2652 89.1655 20.3274 89.1655 21.433C89.1655 22.5385 88.9723 23.579 88.5645 24.5762C88.1567 25.5517 87.5986 26.4188 86.8903 27.1341C86.1819 27.8495 85.3448 28.4131 84.3574 28.8466C83.37 29.2802 82.2968 29.4753 81.1591 29.4753H77.7891V35.8701H73.5605V13.3906H81.1591ZM77.7677 25.465H80.8801C81.4811 25.465 82.0392 25.3566 82.5329 25.1398C83.0266 24.923 83.4559 24.6412 83.8208 24.2727C84.1857 23.9042 84.4433 23.4706 84.6364 22.9721C84.8296 22.4735 84.9155 21.9532 84.9155 21.4113C84.9155 20.8477 84.8296 20.3274 84.6364 19.8505C84.4433 19.3519 84.1642 18.9184 83.8208 18.5499C83.4559 18.1813 83.048 17.8995 82.5329 17.6828C82.0392 17.466 81.4811 17.3576 80.8801 17.3576H77.7677V25.465Z" fill="white"/>
<path d="M115.761 35.2208C114.365 34.6138 113.163 33.79 112.176 32.7712C111.188 31.7307 110.416 30.5168 109.858 29.1077C109.3 27.6987 109.042 26.2029 109.042 24.5988C109.042 22.9296 109.342 21.3689 109.922 19.9815C110.502 18.5725 111.317 17.3585 112.348 16.3397C113.378 15.3209 114.58 14.5188 115.975 13.9335C117.37 13.3699 118.851 13.0664 120.461 13.0664C121.492 13.0664 122.5 13.1965 123.466 13.4566C124.432 13.7167 125.334 14.1069 126.171 14.5838C127.008 15.0607 127.781 15.646 128.446 16.3397C129.133 17.0334 129.713 17.7921 130.185 18.6375L126.471 21.0437C125.849 19.8731 125.033 18.9627 124.046 18.2907C123.059 17.6187 121.857 17.2935 120.44 17.2935C119.41 17.2935 118.444 17.4886 117.564 17.8571C116.683 18.2256 115.911 18.7459 115.288 19.4179C114.644 20.0682 114.151 20.8486 113.786 21.7374C113.421 22.6262 113.228 23.58 113.228 24.5988C113.228 25.596 113.399 26.5498 113.764 27.4169C114.129 28.3056 114.623 29.0644 115.245 29.7147C115.889 30.365 116.641 30.8853 117.521 31.2755C118.401 31.6657 119.345 31.8391 120.354 31.8391C121.878 31.8391 123.166 31.4489 124.218 30.6468C125.269 29.8664 126.085 28.8693 126.643 27.6553L130.507 29.7147C130.013 30.6685 129.434 31.5573 128.725 32.316C128.017 33.0964 127.244 33.7684 126.386 34.332C125.527 34.8956 124.583 35.3291 123.595 35.6326C122.586 35.9361 121.535 36.0879 120.44 36.0879C118.723 36.1312 117.156 35.8277 115.761 35.2208Z" fill="white"/>
<path d="M142.849 13.3906L150.727 35.8051H146.327L144.996 31.9032H136.474L135.143 35.8051H130.743L138.621 13.3906H142.849ZM143.579 27.8278L140.724 19.482L137.87 27.8278H143.579Z" fill="white"/>
<path d="M157.574 13.3906L166.997 28.4781V13.3906H171.247V35.8051H166.739L157.016 20.2407V35.8051H152.787V13.3906H157.574Z" fill="white"/>
<path d="M89.1655 39.2969V43.3722H77.7677V48.4014H89.1655V52.4984H77.7677V57.636H89.1655V61.7114H73.5391V39.2969H89.1655Z" fill="white"/>
<path d="M95.9488 39.2969L105.372 54.3844V39.2969H109.6V61.7114H105.093L95.3692 46.1469V61.7114H91.1406V39.2969H95.9488Z" fill="white"/>
<path d="M136.99 39.2969C138.32 39.2969 139.523 39.492 140.553 39.8605C141.583 40.229 142.463 40.7709 143.172 41.4646C143.88 42.1583 144.417 42.982 144.803 43.9575C145.189 44.933 145.361 45.9952 145.361 47.1658C145.361 48.4881 145.039 49.7454 144.417 50.9377C143.794 52.1299 142.871 53.0404 141.669 53.6907L146.048 61.733H141.24L137.805 54.9697H134.113V61.733H129.885V39.2969H136.99ZM134.113 51.0244H136.646C137.505 51.0244 138.213 50.916 138.793 50.6992C139.372 50.4824 139.844 50.2006 140.188 49.8321C140.553 49.4636 140.789 49.0301 140.939 48.5315C141.089 48.0329 141.154 47.5126 141.154 46.9707C141.154 45.8435 140.789 44.9547 140.081 44.2827C139.372 43.6107 138.235 43.2855 136.646 43.2855H134.113V51.0244Z" fill="white"/>
<path d="M153.668 61.1032C152.251 60.4962 151.049 59.6508 150.04 58.6103C149.031 57.5481 148.237 56.3341 147.7 54.9468C147.164 53.5594 146.885 52.0854 146.885 50.5246C146.885 48.9205 147.164 47.4247 147.743 46.0157C148.323 44.6066 149.096 43.3927 150.105 42.3522C151.113 41.3117 152.294 40.5096 153.689 39.9026C155.084 39.2957 156.587 38.9922 158.24 38.9922C159.399 38.9922 160.494 39.1439 161.502 39.4257C162.533 39.7075 163.456 40.0977 164.314 40.618C165.173 41.1166 165.924 41.7235 166.611 42.4389C167.298 43.1543 167.856 43.913 168.328 44.7584L164.615 47.0345C163.241 44.4549 161.116 43.1543 158.261 43.1543C157.252 43.1543 156.308 43.3494 155.428 43.7395C154.548 44.1297 153.796 44.6717 153.153 45.3437C152.509 46.0157 151.993 46.7961 151.629 47.6848C151.264 48.5736 151.07 49.5274 151.07 50.5246C151.07 51.5434 151.264 52.5189 151.629 53.4077C151.993 54.2965 152.509 55.0985 153.153 55.7489C153.796 56.4209 154.569 56.9411 155.471 57.3096C156.372 57.6781 157.338 57.8732 158.411 57.8732C160.043 57.8732 161.395 57.4397 162.468 56.5943C163.563 55.7488 164.293 54.5999 164.701 53.1692H157.725V49.0939H169.251V50.8064C169.251 52.3238 168.994 53.7545 168.478 55.0985C167.963 56.4425 167.233 57.6348 166.289 58.6536C165.345 59.6725 164.207 60.4962 162.876 61.1032C161.545 61.7102 160.043 62.0136 158.411 62.0136C156.651 62.0136 155.084 61.7102 153.668 61.1032Z" fill="white"/>
<path d="M175.477 39.2969V61.7114H171.248V39.2969H175.477Z" fill="white"/>
<path d="M198.165 60.8644C196.77 60.1056 195.567 59.1302 194.58 58.0029L198.444 54.9247C199.002 55.8785 199.689 56.6372 200.504 57.1575C201.342 57.6778 202.243 57.9379 203.252 57.9379C203.81 57.9379 204.282 57.8512 204.69 57.6994C205.098 57.526 205.441 57.3092 205.72 57.0491C205.999 56.7673 206.214 56.4638 206.364 56.117C206.515 55.7702 206.579 55.4016 206.579 55.0114C206.579 54.5562 206.45 54.166 206.193 53.8409C205.935 53.5157 205.592 53.2339 205.184 53.0171C204.754 52.8003 204.261 52.5836 203.703 52.4101C203.145 52.215 202.565 52.0416 201.985 51.8465C201.234 51.6298 200.483 51.3696 199.732 51.0661C198.98 50.7627 198.315 50.3941 197.714 49.9172C197.113 49.4403 196.619 48.855 196.254 48.1614C195.889 47.446 195.696 46.5572 195.696 45.4734C195.696 44.5629 195.889 43.7392 196.254 42.9588C196.619 42.1784 197.134 41.5064 197.8 40.9211C198.465 40.3358 199.238 39.8806 200.139 39.5337C201.041 39.1869 202.028 39.0352 203.102 39.0352C204.025 39.0352 204.84 39.1219 205.549 39.2736C206.278 39.447 206.922 39.6638 207.523 39.9456C208.124 40.2274 208.661 40.5743 209.176 40.9644C209.67 41.3546 210.142 41.7882 210.593 42.2651L207.094 44.9314C206.171 43.5224 204.84 42.807 203.145 42.807C202.157 42.807 201.406 43.0455 200.869 43.5224C200.333 43.9993 200.097 44.5846 200.097 45.2999C200.097 45.7335 200.225 46.102 200.461 46.4055C200.698 46.709 201.041 46.9691 201.449 47.2076C201.857 47.4243 202.35 47.6411 202.887 47.8145C203.445 48.0096 204.003 48.183 204.583 48.3998C205.334 48.6383 206.085 48.9201 206.858 49.2452C207.631 49.5704 208.318 49.9823 208.919 50.4809C209.541 50.9794 210.035 51.6081 210.421 52.3451C210.808 53.0821 211.001 53.9926 211.001 55.0548C211.001 55.9652 210.829 56.8323 210.486 57.6561C210.142 58.4798 209.648 59.2385 209.004 59.8889C208.361 60.5392 207.545 61.0594 206.579 61.4496C205.613 61.8398 204.518 62.0566 203.316 62.0566C201.277 62.0133 199.56 61.6447 198.165 60.8644Z" fill="white"/>
<path d="M106.767 13.3906V17.466H95.3692V22.4952H106.767V26.5705H95.3692V31.7081H106.767V35.7834H91.1406V13.3906H106.767Z" fill="white"/>
<path d="M127.394 39.2969V43.3722H115.996V48.4014H127.394V52.4984H115.996V57.636H127.394V61.7114H111.768V39.2969H127.394Z" fill="white"/>
<path d="M193.399 39.2969V43.3722H182.001V48.4014H193.399V52.4984H182.001V57.636H193.399V61.7114H177.772V39.2969H193.399Z" fill="white"/>
<path d="M24.6847 2.24988C13.7161 -4.14496 0.0214844 3.85402 0.0214844 16.6437V20.6324V23.0386C1.86747 15.9717 9.87387 12.59 16.1631 16.2535L41.8136 31.211L41.8566 31.2326L42.8225 30.669C48.6395 27.2657 49.863 19.3534 45.4198 14.3242L24.6847 2.24988Z" fill="url(#paint0_linear_367_5970)"/>
<path d="M49.7552 45.5397C60.23 39.34 60.5735 24.4042 50.8713 17.5975L48.5317 16.1668L45.3763 14.3242C49.8196 19.3534 48.5961 27.2657 42.7791 30.669L23.6109 41.8546C21.1425 43.307 19.5111 46.0383 19.597 49.1382C19.7043 53.452 23.1602 57.0071 27.4317 57.1589C28.741 57.2022 29.986 56.9421 31.0807 56.4218L49.7552 45.5397Z" fill="#22D6CD"/>
<path d="M0 74.9995L16.2704 65.3747V16.3403L16.1416 16.2536C9.87385 12.5901 1.86745 15.9501 0 23.0387V22.9736V74.9778V74.9995Z" fill="url(#paint1_linear_367_5970)"/>
<defs>
<linearGradient id="paint0_linear_367_5970" x1="5.28122" y1="8.52137" x2="43.9834" y2="30.647" gradientUnits="userSpaceOnUse">
<stop offset="0.5" stop-color="#0066CC"/>
<stop offset="0.6475" stop-color="#0064C9"/>
<stop offset="0.7363" stop-color="#005FC1"/>
<stop offset="0.8094" stop-color="#0056B3"/>
<stop offset="0.8741" stop-color="#004A9F"/>
<stop offset="0.9332" stop-color="#003984"/>
<stop offset="0.9875" stop-color="#002564"/>
<stop offset="1" stop-color="#00205C"/>
</linearGradient>
<linearGradient id="paint1_linear_367_5970" x1="8.14151" y1="73.6163" x2="8.14151" y2="15.3471" gradientUnits="userSpaceOnUse">
<stop offset="0.5" stop-color="#00B7FF"/>
<stop offset="0.6307" stop-color="#00B5FC"/>
<stop offset="0.7094" stop-color="#00ADF4"/>
<stop offset="0.7742" stop-color="#00A0E6"/>
<stop offset="0.8316" stop-color="#008DD1"/>
<stop offset="0.884" stop-color="#0074B7"/>
<stop offset="0.9328" stop-color="#005797"/>
<stop offset="0.9779" stop-color="#003471"/>
<stop offset="1" stop-color="#00205C"/>
</linearGradient>
</defs>
</svg>
