<svg width="171" height="60" viewBox="0 0 171 60" fill="none" xmlns="http://www.w3.org/2000/svg">
<path d="M65.7752 10.7129C66.7145 10.7129 67.5669 10.8863 68.3671 11.2158C69.1499 11.5454 69.8457 12.0136 70.4197 12.5859C70.9938 13.1582 71.4461 13.8346 71.7766 14.6324C72.1071 15.4128 72.2637 16.2626 72.2637 17.1471C72.2637 18.0316 72.1071 18.8641 71.7766 19.6619C71.4461 20.4423 70.9938 21.136 70.4197 21.7083C69.8457 22.2806 69.1673 22.7315 68.3671 23.0784C67.5669 23.4253 66.6971 23.5814 65.7752 23.5814H63.0441V28.6975H59.6172V10.7129H65.7752ZM63.0267 20.3729H65.549C66.0361 20.3729 66.4884 20.2862 66.8885 20.1128C67.2886 19.9393 67.6365 19.7139 67.9322 19.419C68.2279 19.1242 68.4367 18.7774 68.5932 18.3785C68.7498 17.9796 68.8194 17.5634 68.8194 17.1298C68.8194 16.6789 68.7498 16.2626 68.5932 15.8811C68.4367 15.4822 68.2105 15.1353 67.9322 14.8405C67.6365 14.5457 67.306 14.3202 66.8885 14.1468C66.4884 13.9734 66.0361 13.8866 65.549 13.8866H63.0267V20.3729Z" fill="#00205C"/>
<path d="M93.8159 28.1776C92.6852 27.692 91.711 27.033 90.9108 26.2179C90.1106 25.3854 89.4844 24.4142 89.0321 23.2869C88.5798 22.1596 88.3711 20.9629 88.3711 19.6796C88.3711 18.3442 88.6146 17.0955 89.0843 15.9855C89.554 14.8582 90.215 13.887 91.05 13.0719C91.885 12.2568 92.8591 11.6151 93.9898 11.1468C95.1205 10.6959 96.3208 10.4531 97.6255 10.4531C98.4604 10.4531 99.278 10.5572 100.061 10.7653C100.844 10.9734 101.574 11.2856 102.253 11.6671C102.931 12.0487 103.557 12.5169 104.097 13.0719C104.653 13.6269 105.123 14.2339 105.506 14.9103L102.496 16.8353C101.992 15.8988 101.331 15.1704 100.53 14.6328C99.7303 14.0951 98.7562 13.835 97.6081 13.835C96.7731 13.835 95.9903 13.9911 95.2771 14.2859C94.5639 14.5807 93.9376 14.997 93.4332 15.5346C92.9113 16.0549 92.5112 16.6792 92.2155 17.3903C91.9198 18.1014 91.7632 18.8645 91.7632 19.6796C91.7632 20.4773 91.9024 21.2404 92.1981 21.9342C92.4938 22.6452 92.8939 23.2522 93.3984 23.7725C93.9202 24.2928 94.5291 24.709 95.2423 25.0212C95.9555 25.3334 96.7209 25.4721 97.5385 25.4721C98.7736 25.4721 99.8173 25.1599 100.67 24.5183C101.522 23.8939 102.183 23.0961 102.635 22.1249L105.767 23.7725C105.366 24.5356 104.897 25.2467 104.323 25.8537C103.749 26.478 103.122 27.0156 102.427 27.4666C101.731 27.9175 100.965 28.2643 100.165 28.5071C99.3476 28.7499 98.4952 28.8713 97.6081 28.8713C96.2164 28.906 94.9466 28.6632 93.8159 28.1776Z" fill="#00205C"/>
<path d="M115.768 10.7129L122.152 28.6455H118.586L117.508 25.5238H110.602L109.523 28.6455H105.957L112.341 10.7129H115.768ZM116.359 22.2633L114.046 15.5863L111.732 22.2633H116.359Z" fill="#00205C"/>
<path d="M127.699 10.7129L135.336 22.7836V10.7129H138.78V28.6455H135.127L127.247 16.1933V28.6455H123.82V10.7129H127.699Z" fill="#00205C"/>
<path d="M72.2615 31.4355V34.696H63.0246V38.7196H72.2615V41.9974H63.0246V46.1077H72.2615V49.3682H59.5977V31.4355H72.2615Z" fill="#00205C"/>
<path d="M77.756 31.4355L85.3925 43.5062V31.4355H88.8194V49.3682H85.1664L77.2863 36.9159V49.3682H73.8594V31.4355H77.756Z" fill="#00205C"/>
<path d="M111.02 31.4355C112.098 31.4355 113.072 31.5916 113.907 31.8865C114.742 32.1813 115.455 32.6149 116.029 33.1698C116.604 33.7248 117.038 34.3838 117.352 35.1643C117.665 35.9447 117.804 36.7945 117.804 37.731C117.804 38.789 117.543 39.7948 117.038 40.7487C116.534 41.7026 115.786 42.431 114.812 42.9513L118.36 49.3855H114.464L111.681 43.9745H108.689V49.3855H105.262V31.4355H111.02ZM108.689 40.8181H110.741C111.437 40.8181 112.011 40.7314 112.481 40.5579C112.95 40.3845 113.333 40.1591 113.612 39.8642C113.907 39.5694 114.099 39.2225 114.22 38.8236C114.342 38.4248 114.394 38.0085 114.394 37.5749C114.394 36.6731 114.099 35.9621 113.525 35.4244C112.95 34.8868 112.029 34.6266 110.741 34.6266H108.689V40.8181Z" fill="#00205C"/>
<path d="M124.532 48.8832C123.384 48.3976 122.41 47.7212 121.592 46.8887C120.775 46.0389 120.131 45.0677 119.696 43.9578C119.261 42.8478 119.035 41.6685 119.035 40.4198C119.035 39.1364 119.261 37.9398 119.731 36.8125C120.201 35.6852 120.827 34.714 121.644 33.8815C122.462 33.0491 123.419 32.4074 124.55 31.9218C125.68 31.4362 126.898 31.1934 128.237 31.1934C129.177 31.1934 130.064 31.3148 130.881 31.5402C131.716 31.7657 132.464 32.0778 133.16 32.4941C133.856 32.893 134.465 33.3786 135.022 33.9509C135.578 34.5232 136.03 35.1302 136.413 35.8066L133.404 37.6276C132.29 35.5638 130.568 34.5232 128.255 34.5232C127.437 34.5232 126.672 34.6793 125.959 34.9915C125.245 35.3036 124.636 35.7372 124.115 36.2748C123.593 36.8125 123.175 37.4368 122.88 38.1479C122.584 38.8589 122.427 39.622 122.427 40.4198C122.427 41.2349 122.584 42.0154 122.88 42.7264C123.175 43.4375 123.593 44.0792 124.115 44.5995C124.636 45.1371 125.263 45.5533 125.993 45.8482C126.724 46.143 127.507 46.2991 128.377 46.2991C129.699 46.2991 130.794 45.9522 131.664 45.2758C132.551 44.5995 133.143 43.6803 133.473 42.5356H127.82V39.2752H137.161V40.6453C137.161 41.8593 136.952 43.0039 136.535 44.0792C136.117 45.1544 135.526 46.1083 134.761 46.9234C133.995 47.7385 133.073 48.3976 131.995 48.8832C130.916 49.3688 129.699 49.6116 128.377 49.6116C126.95 49.6116 125.68 49.3688 124.532 48.8832Z" fill="#00205C"/>
<path d="M142.208 31.4355V49.3682H138.781V31.4355H142.208Z" fill="#00205C"/>
<path d="M160.596 48.6948C159.466 48.0878 158.492 47.3074 157.691 46.4055L160.823 43.9429C161.275 44.7059 161.832 45.3129 162.493 45.7292C163.171 46.1454 163.902 46.3535 164.719 46.3535C165.171 46.3535 165.554 46.2841 165.885 46.1627C166.215 46.024 166.493 45.8506 166.72 45.6425C166.946 45.417 167.12 45.1742 167.241 44.8967C167.363 44.6192 167.415 44.3244 167.415 44.0122C167.415 43.648 167.311 43.3358 167.102 43.0757C166.894 42.8156 166.615 42.5901 166.285 42.4167C165.937 42.2432 165.537 42.0698 165.084 41.9311C164.632 41.775 164.162 41.6362 163.693 41.4802C163.084 41.3067 162.475 41.0986 161.866 40.8558C161.257 40.613 160.718 40.3182 160.231 39.9366C159.744 39.5551 159.344 39.0868 159.048 38.5319C158.753 37.9595 158.596 37.2485 158.596 36.3813C158.596 35.6529 158.753 34.9939 159.048 34.3695C159.344 33.7452 159.761 33.2076 160.301 32.7393C160.84 32.271 161.466 31.9068 162.197 31.6294C162.927 31.3519 163.728 31.2305 164.597 31.2305C165.345 31.2305 166.006 31.2998 166.58 31.4212C167.172 31.56 167.694 31.7334 168.181 31.9589C168.668 32.1843 169.103 32.4618 169.52 32.774C169.92 33.0862 170.303 33.433 170.668 33.8146L167.833 35.9478C167.085 34.8205 166.006 34.2481 164.632 34.2481C163.832 34.2481 163.223 34.4389 162.788 34.8205C162.353 35.202 162.162 35.6703 162.162 36.2426C162.162 36.5894 162.266 36.8843 162.458 37.1271C162.649 37.3699 162.927 37.578 163.258 37.7688C163.588 37.9422 163.989 38.1156 164.423 38.2544C164.876 38.4104 165.328 38.5492 165.798 38.7226C166.407 38.9134 167.015 39.1389 167.642 39.399C168.268 39.6591 168.824 39.9887 169.312 40.3875C169.816 40.7864 170.216 41.2894 170.529 41.879C170.842 42.4687 170.999 43.1971 170.999 44.0469C170.999 44.7753 170.86 45.469 170.581 46.1281C170.303 46.7871 169.903 47.3941 169.381 47.9144C168.859 48.4347 168.198 48.8509 167.415 49.1631C166.633 49.4752 165.745 49.6487 164.771 49.6487C163.119 49.614 161.727 49.3192 160.596 48.6948Z" fill="#00205C"/>
<path d="M86.5232 10.7129V13.9734H77.2863V17.9969H86.5232V21.2574H77.2863V25.3677H86.5232V28.6282H73.8594V10.7129H86.5232Z" fill="#00205C"/>
<path d="M103.242 31.4355V34.696H94.005V38.7196H103.242V41.9974H94.005V46.1077H103.242V49.3682H90.5781V31.4355H103.242Z" fill="#00205C"/>
<path d="M156.734 31.4355V34.696H147.497V38.7196H156.734V41.9974H147.497V46.1077H156.734V49.3682H144.07V31.4355H156.734Z" fill="#00205C"/>
<path d="M20.0069 1.80001C11.1178 -3.31616 0.0195312 3.08339 0.0195312 13.3157V16.5068V18.4319C1.51554 12.7781 8.00403 10.0726 13.1009 13.0036L33.8884 24.9702L33.9232 24.9875L34.706 24.5366C39.4202 21.8138 40.4117 15.4836 36.8109 11.46L20.0069 1.80001Z" fill="url(#paint0_linear_1107_1784)"/>
<path d="M40.3221 36.4309C48.8111 31.4708 49.0894 19.5215 41.2267 14.0758L39.3306 12.9312L36.7734 11.457C40.3743 15.4806 39.3828 21.8108 34.6686 24.5336L19.1345 33.4826C17.134 34.6445 15.8119 36.8298 15.8815 39.3098C15.9685 42.761 18.7692 45.6053 22.2309 45.7267C23.292 45.7614 24.3009 45.5533 25.1881 45.137L40.3221 36.4309Z" fill="#22D6CD"/>
<path d="M0 60.0004L13.1857 52.3001V13.0704L13.0814 13.001C8.0019 10.07 1.5134 12.7582 0 18.4293V18.3773V59.983V60.0004Z" fill="url(#paint1_linear_1107_1784)"/>
<defs>
<linearGradient id="paint0_linear_1107_1784" x1="4.28209" y1="6.81748" x2="35.4466" y2="24.8648" gradientUnits="userSpaceOnUse">
<stop offset="0.5" stop-color="#0066CC"/>
<stop offset="0.6475" stop-color="#0064C9"/>
<stop offset="0.7363" stop-color="#005FC1"/>
<stop offset="0.8094" stop-color="#0056B3"/>
<stop offset="0.8741" stop-color="#004A9F"/>
<stop offset="0.9332" stop-color="#003984"/>
<stop offset="0.9875" stop-color="#002564"/>
<stop offset="1" stop-color="#00205C"/>
</linearGradient>
<linearGradient id="paint1_linear_1107_1784" x1="6.59798" y1="58.8937" x2="6.59798" y2="12.2758" gradientUnits="userSpaceOnUse">
<stop offset="0.5" stop-color="#00B7FF"/>
<stop offset="0.6307" stop-color="#00B5FC"/>
<stop offset="0.7094" stop-color="#00ADF4"/>
<stop offset="0.7742" stop-color="#00A0E6"/>
<stop offset="0.8316" stop-color="#008DD1"/>
<stop offset="0.884" stop-color="#0074B7"/>
<stop offset="0.9328" stop-color="#005797"/>
<stop offset="0.9779" stop-color="#003471"/>
<stop offset="1" stop-color="#00205C"/>
</linearGradient>
</defs>
</svg>
